<?xml version="1.0" standalone="no"?>
<!DOCTYPE svg PUBLIC "-//W3C//DTD SVG 20010904//EN"
 "http://www.w3.org/TR/2001/REC-SVG-20010904/DTD/svg10.dtd">
<svg version="1.0" xmlns="http://www.w3.org/2000/svg"
 width="512.000000pt" height="512.000000pt" viewBox="0 0 512.000000 512.000000"
 preserveAspectRatio="xMidYMid meet">

<g transform="translate(0.000000,512.000000) scale(0.100000,-0.100000)"
fill="#000000" stroke="none">
<path d="M1741 5105 c-389 -53 -730 -203 -1022 -451 -331 -281 -565 -690 -644
-1129 -23 -127 -31 -409 -15 -543 105 -905 807 -1602 1712 -1701 353 -39 729
29 1056 192 l123 61 232 -230 c128 -126 459 -455 737 -731 552 -548 544 -542
685 -566 166 -28 350 72 422 229 49 107 46 237 -7 346 -28 56 -106 137 -751
778 -396 393 -720 718 -719 722 0 3 22 42 49 85 215 347 316 740 291 1134 -9
147 -12 168 -41 305 -43 210 -146 457 -268 641 -259 393 -642 674 -1090 800
-223 63 -537 87 -750 58z m509 -704 c251 -63 457 -183 629 -367 403 -432 441
-1102 89 -1576 -366 -494 -1028 -648 -1570 -366 -278 144 -500 403 -601 698
-41 120 -58 216 -64 355 -20 477 231 914 658 1144 112 61 245 103 419 135 14
2 99 3 190 1 126 -2 185 -8 250 -24z"/>
</g>
</svg>
